<svg width="18" height="18" viewBox="0 0 18 18" fill="none" xmlns="http://www.w3.org/2000/svg">
<path d="M9 18C13.9706 18 18 13.9706 18 9C18 4.02944 13.9706 0 9 0C4.02944 0 0 4.02944 0 9C0 13.9706 4.02944 18 9 18Z" fill="#F2EFE6"/>
<path d="M7.353 13.7473C11.3445 13.7473 13.527 10.4398 13.527 7.57334C13.527 7.47884 13.527 7.38434 13.5225 7.29434C13.9455 6.98834 14.3145 6.60584 14.607 6.16934C14.22 6.34034 13.8015 6.45734 13.3605 6.51134C13.8105 6.24134 14.1525 5.81834 14.3145 5.30984C13.896 5.55734 13.4325 5.73734 12.9375 5.83634C12.5415 5.41334 11.979 5.15234 11.3535 5.15234C10.1565 5.15234 9.1845 6.12434 9.1845 7.32134C9.1845 7.49234 9.2025 7.65884 9.243 7.81634C7.4385 7.72634 5.841 6.86234 4.77 5.54834C4.5855 5.86784 4.4775 6.24134 4.4775 6.63734C4.4775 7.38884 4.86 8.05484 5.445 8.44184C5.0895 8.43284 4.7565 8.33384 4.464 8.17184C4.464 8.18084 4.464 8.18984 4.464 8.19884C4.464 9.25184 5.211 10.1248 6.2055 10.3273C6.0255 10.3768 5.832 10.4038 5.634 10.4038C5.4945 10.4038 5.3595 10.3903 5.2245 10.3633C5.499 11.2273 6.3 11.8528 7.2495 11.8708C6.507 12.4513 5.571 12.7978 4.554 12.7978C4.3785 12.7978 4.2075 12.7888 4.0365 12.7663C4.986 13.3873 6.129 13.7473 7.353 13.7473Z" fill="#163651"/>
</svg>
